# xmcd
#
# Track frame offsets: 
#        150
#        16987
#        33974
#        47361
#        64123
#        81110
#        94872
#        111409
#        125621
#        136683
#        154345
#        167282
#        185095
#        204107
#        218244
#        228481
#        243518
#        259155
#
# Disc length: 3583 seconds
#
# Revision: 3
# Processed by: cddbd v1.5.2PL0 Copyright (c) Steve Scherf et al.
# Submitted via: ExactAudioCopyFreeDBPlugin 1.0
#
DISCID=ef0dfd12
DTITLE=Various Artist - Promo Only Country Radio January 2007
DYEAR=2007
DGENRE=Country
TTITLE0=Brooks and Dunn - Hillbilly Deluxe (Remix)
TTITLE1=Keith Urban - Stupid Boy
TTITLE2=Josh Turner feat. Ralph Stanley - Me And God
TTITLE3=Dierks Bentley - Long Trip Alone
TTITLE4=Jack Ingram - Lips Of An Angel
TTITLE5=Miranda Lambert - Crazy Ex-Girlfriend
TTITLE6=Carolina Rain - Isn't She
TTITLE7=Sammy Kershaw - Baby's Got Her Blue Jeans On
TTITLE8=Grayson Capps - Jukebox
TTITLE9=Nanci Griffith - Never Be The Sun
TTITLE10=Solomon Burke with Patty Loveless - You're The Kind Of Troubl
TTITLE10=e
TTITLE11=Joan Osborne - Please Don't Tell Me How The Story Ends
TTITLE12=Memarie - Cry Like Memphis
TTITLE13=Samaritans - Joy's Gonna Come In The Morning
TTITLE14=Sunny Sweeney - If I Could
TTITLE15=Jaime Fox - The Long Way
TTITLE16=Aaron Tippin - He Believed
TTITLE17=Toby Keith - Crash Here Tonight (Acoustic Version)
EXTD=
EXTT0=
EXTT1=
EXTT2=
EXTT3=
EXTT4=
EXTT5=
EXTT6=
EXTT7=
EXTT8=
EXTT9=
EXTT10=
EXTT11=
EXTT12=
EXTT13=
EXTT14=
EXTT15=
EXTT16=
EXTT17=
PLAYORDER=
